<?xml version="1.0" standalone="no"?>
<!DOCTYPE svg PUBLIC "-//W3C//DTD SVG 20010904//EN"
 "http://www.w3.org/TR/2001/REC-SVG-20010904/DTD/svg10.dtd">
<svg version="1.0" xmlns="http://www.w3.org/2000/svg"
 width="270.000000pt" height="270.000000pt" viewBox="0 0 270.000000 270.000000"
 preserveAspectRatio="xMidYMid meet">
<metadata>
Created by potrace 1.11, written by Peter Selinger 2001-2013
</metadata>
<g transform="translate(0.000000,270.000000) scale(0.100000,-0.100000)"
fill="#000000" stroke="none">
<path d="M1088 2327 c-27 -5 -48 -13 -48 -19 0 -5 -4 -7 -9 -3 -11 6 -95 -38
-130 -69 -13 -11 -41 -59 -63 -106 -22 -47 -81 -168 -130 -270 -93 -189 -176
-365 -179 -378 -1 -4 -6 -18 -11 -32 -32 -85 -63 -211 -93 -390 -3 -19 -8
-104 -11 -188 -5 -189 5 -217 107 -280 43 -26 187 -75 199 -67 6 3 10 2 10 -3
0 -5 36 -15 79 -21 113 -17 123 -19 236 -56 44 -14 96 -28 115 -31 19 -2 49
-6 65 -9 59 -10 242 -4 305 10 14 3 39 8 55 10 17 3 38 8 47 11 9 3 25 6 35 8
75 15 285 83 365 118 15 7 29 22 32 33 3 12 15 43 28 71 12 27 21 52 20 57 -1
4 3 7 9 7 6 0 9 7 5 15 -3 8 -2 15 3 15 5 0 16 17 24 38 8 20 31 71 50 112 45
95 99 229 122 298 12 38 14 56 6 66 -6 7 -8 16 -5 19 4 3 -5 9 -20 13 -14 3
-26 10 -26 15 0 5 -7 9 -15 9 -8 0 -15 3 -15 8 0 12 -112 58 -161 67 -18 3
-36 8 -42 12 -15 9 -167 11 -173 2 -2 -4 -11 -6 -18 -3 -21 8 -155 -41 -223
-81 -69 -41 -128 -91 -128 -108 0 -13 -22 -13 -70 -2 -82 20 -251 10 -344 -20
-15 -5 -22 3 -36 42 -23 67 -29 113 -30 228 0 116 8 178 32 255 9 30 17 60 18
65 0 6 6 16 14 24 11 12 17 12 33 2 11 -7 29 -14 39 -17 11 -2 28 -6 39 -8 11
-3 34 0 52 5 18 6 67 12 108 15 165 9 173 12 215 79 44 71 43 263 -3 317 -24
29 -94 65 -177 93 -87 29 -224 39 -307 22z"/>
</g>
</svg>
